<?xml version="1.0" encoding="UTF-8"?>
<svg xmlns="http://www.w3.org/2000/svg" xmlns:xlink="http://www.w3.org/1999/xlink" width="1152px" height="1152px" viewBox="0 0 1152 1152" version="1.1">
<g id="surface1">
<rect x="0" y="0" width="1152" height="1152" style="fill:rgb(2.352941%,10.196078%,25.098039%);fill-opacity:1;stroke:none;"/>
<path style=" stroke:none;fill-rule:nonzero;fill:rgb(72.54902%,83.921569%,94.901961%);fill-opacity:1;" d="M 476.699219 402.738281 C 476.699219 380.390625 476.699219 358.042969 476.699219 335.921875 C 499.046875 335.921875 521.394531 335.921875 543.511719 335.921875 C 543.511719 331.316406 543.511719 326.707031 543.511719 322.097656 L 462.875 322.097656 C 462.875 349.054688 462.875 376.011719 462.875 402.738281 C 467.480469 402.738281 472.089844 402.738281 476.699219 402.738281 Z M 476.699219 402.738281 "/>
<path style=" stroke:none;fill-rule:nonzero;fill:rgb(1.176471%,32.54902%,64.313725%);fill-opacity:1;" d="M 651.339844 388.222656 L 651.339844 394.214844 L 512.410156 394.214844 L 512.410156 388.222656 C 512.410156 388.222656 651.339844 388.222656 651.339844 388.222656 Z M 651.339844 388.222656 "/>
<path style=" stroke:none;fill-rule:nonzero;fill:rgb(1.176471%,32.54902%,64.313725%);fill-opacity:1;" d="M 651.339844 412.414062 L 651.339844 418.40625 L 511.949219 418.40625 L 511.949219 412.414062 Z M 651.339844 412.414062 "/>
<path style=" stroke:none;fill-rule:nonzero;fill:rgb(1.176471%,32.54902%,64.313725%);fill-opacity:1;" d="M 651.339844 436.839844 L 651.339844 442.828125 L 511.949219 442.828125 L 511.949219 436.839844 Z M 651.339844 436.839844 "/>
<path style=" stroke:none;fill-rule:nonzero;fill:rgb(1.176471%,32.54902%,64.313725%);fill-opacity:1;" d="M 647.886719 461.03125 L 647.886719 467.25 L 512.179688 467.25 L 512.179688 461.03125 Z M 647.886719 461.03125 "/>
<path style=" stroke:none;fill-rule:nonzero;fill:rgb(1.176471%,32.54902%,64.313725%);fill-opacity:1;" d="M 651.339844 485.453125 L 651.339844 491.441406 L 511.949219 491.441406 L 511.949219 485.453125 Z M 651.339844 485.453125 "/>
<path style=" stroke:none;fill-rule:nonzero;fill:rgb(1.176471%,32.54902%,64.313725%);fill-opacity:1;" d="M 651.339844 509.644531 L 651.339844 515.636719 L 511.949219 515.636719 L 511.949219 509.644531 Z M 651.339844 509.644531 "/>
<path style=" stroke:none;fill-rule:nonzero;fill:rgb(1.176471%,32.54902%,64.313725%);fill-opacity:1;" d="M 588.671875 534.066406 L 588.671875 540.058594 L 512.179688 540.058594 L 512.179688 534.066406 Z M 588.671875 534.066406 "/>
<path style=" stroke:none;fill-rule:nonzero;fill:rgb(72.54902%,83.921569%,94.901961%);fill-opacity:1;" d="M 543.511719 582.222656 C 521.164062 582.222656 498.816406 582.222656 476.699219 582.222656 C 476.699219 559.871094 476.699219 537.523438 476.699219 515.40625 C 472.089844 515.40625 467.480469 515.40625 462.875 515.40625 L 462.875 596.042969 C 489.832031 596.042969 516.789062 596.042969 543.511719 596.042969 C 543.511719 591.4375 543.511719 586.828125 543.511719 582.222656 Z M 543.511719 582.222656 "/>
<path style=" stroke:none;fill-rule:nonzero;fill:rgb(72.54902%,83.921569%,94.901961%);fill-opacity:1;" d="M 679.910156 515.40625 C 679.910156 537.753906 679.910156 560.101562 679.910156 582.222656 C 657.5625 582.222656 635.210938 582.222656 613.09375 582.222656 C 613.09375 586.828125 613.09375 591.4375 613.09375 596.042969 L 693.734375 596.042969 C 693.734375 569.089844 693.734375 542.132812 693.734375 515.40625 C 689.125 515.40625 684.519531 515.40625 679.910156 515.40625 Z M 679.910156 515.40625 "/>
<path style=" stroke:none;fill-rule:nonzero;fill:rgb(72.54902%,83.921569%,94.901961%);fill-opacity:1;" d="M 612.863281 335.921875 C 635.210938 335.921875 657.5625 335.921875 679.679688 335.921875 C 679.679688 358.273438 679.679688 380.621094 679.679688 402.738281 C 684.289062 402.738281 688.894531 402.738281 693.503906 402.738281 L 693.503906 322.097656 C 666.546875 322.097656 639.589844 322.097656 612.863281 322.097656 C 612.863281 326.707031 612.863281 331.316406 612.863281 335.921875 Z M 612.863281 335.921875 "/>
<path style=" stroke:none;fill-rule:nonzero;fill:rgb(72.54902%,83.921569%,94.901961%);fill-opacity:1;" d="M 282.007812 770.6875 L 239.15625 770.6875 L 239.15625 767.921875 L 252.75 761.242188 L 252.75 669.3125 L 239.386719 662.167969 L 239.386719 659.40625 L 265.882812 659.40625 L 330.394531 738.664062 L 330.394531 668.621094 L 313.113281 661.9375 L 313.113281 659.175781 L 355.738281 659.175781 L 355.738281 661.9375 L 342.375 668.621094 L 342.375 771.378906 L 335.230469 771.378906 L 264.960938 685.210938 L 264.960938 761.242188 L 282.238281 767.921875 Z M 424.628906 772.300781 C 415.179688 772.300781 406.886719 770.226562 399.511719 766.078125 C 392.140625 761.933594 386.378906 756.171875 382.234375 748.800781 C 378.085938 741.425781 376.011719 733.132812 376.011719 723.6875 C 376.011719 714.238281 378.085938 705.714844 382.234375 698.34375 C 386.378906 690.96875 392.140625 685.210938 399.511719 680.832031 C 406.886719 676.683594 415.179688 674.609375 424.628906 674.609375 C 434.074219 674.609375 442.367188 676.683594 449.742188 680.832031 C 457.113281 684.980469 462.875 690.96875 467.019531 698.34375 C 471.167969 705.714844 473.242188 714.238281 473.242188 723.6875 C 473.242188 733.132812 471.167969 741.425781 467.019531 748.800781 C 462.875 756.171875 457.113281 761.933594 449.742188 766.078125 C 442.367188 770.226562 434.074219 772.300781 424.628906 772.300781 Z M 427.390625 764.007812 C 436.378906 764.007812 443.519531 760.78125 448.820312 754.097656 C 453.886719 747.417969 456.652344 738.664062 456.652344 727.832031 C 456.652344 718.847656 455.269531 711.246094 452.273438 704.332031 C 449.28125 697.421875 445.363281 692.351562 440.292969 688.664062 C 435.226562 684.980469 429.234375 683.136719 422.554688 683.136719 C 413.566406 683.136719 406.425781 686.363281 401.125 693.042969 C 395.828125 699.726562 393.0625 708.25 393.0625 719.078125 C 393.0625 728.0625 394.445312 735.898438 397.441406 742.578125 C 400.433594 749.261719 404.351562 754.558594 409.652344 758.476562 C 414.71875 762.164062 420.710938 764.007812 427.390625 764.007812 Z M 544.664062 770.6875 L 494.667969 770.6875 L 494.667969 767.921875 L 508.261719 761.242188 L 508.261719 668.851562 L 494.667969 662.167969 L 494.667969 659.40625 L 545.816406 659.40625 C 558.488281 659.40625 569.089844 661.707031 578.074219 666.085938 C 587.058594 670.464844 593.742188 676.453125 598.347656 684.058594 C 602.957031 691.660156 605.261719 700.414062 605.261719 710.09375 C 605.261719 718.847656 603.648438 726.910156 600.652344 734.285156 C 597.65625 741.65625 593.28125 748.109375 587.980469 753.40625 C 582.453125 758.707031 576.230469 763.085938 568.859375 766.078125 C 561.484375 769.304688 553.421875 770.6875 544.664062 770.6875 Z M 541.210938 668.851562 L 525.773438 668.851562 L 525.773438 761.472656 L 543.742188 761.472656 C 552.730469 761.472656 560.332031 759.628906 566.785156 755.941406 C 573.234375 752.257812 578.074219 746.957031 581.53125 740.042969 C 584.984375 733.132812 586.828125 725.070312 586.828125 715.621094 C 586.828125 706.40625 584.984375 698.113281 581.53125 691.199219 C 578.074219 684.289062 572.773438 678.757812 566.09375 674.839844 C 559.179688 670.695312 550.886719 668.851562 541.210938 668.851562 Z M 675.761719 772.300781 C 666.316406 772.300781 658.023438 770.226562 650.648438 766.078125 C 643.277344 761.933594 637.515625 756.171875 633.371094 748.800781 C 629.222656 741.425781 627.148438 733.132812 627.148438 723.6875 C 627.148438 714.238281 629.222656 705.714844 633.371094 698.34375 C 637.515625 690.96875 643.277344 685.210938 650.648438 680.832031 C 658.023438 676.683594 666.316406 674.609375 675.761719 674.609375 C 685.210938 674.609375 693.503906 676.683594 700.875 680.832031 C 708.25 684.980469 714.007812 690.96875 718.15625 698.34375 C 722.304688 705.714844 724.378906 714.238281 724.378906 723.6875 C 724.378906 733.132812 722.304688 741.425781 718.15625 748.800781 C 714.007812 756.171875 708.25 761.933594 700.875 766.078125 C 693.503906 770.226562 684.980469 772.300781 675.761719 772.300781 Z M 678.296875 764.007812 C 687.28125 764.007812 694.425781 760.78125 699.726562 754.097656 C 704.792969 747.417969 707.558594 738.664062 707.558594 727.832031 C 707.558594 718.847656 706.175781 711.246094 703.179688 704.332031 C 700.414062 697.652344 696.269531 692.351562 691.199219 688.664062 C 686.132812 684.980469 680.140625 683.136719 673.460938 683.136719 C 664.472656 683.136719 657.332031 686.363281 652.03125 693.042969 C 646.734375 699.726562 643.96875 708.25 643.96875 719.078125 C 643.96875 728.0625 645.351562 735.898438 648.34375 742.578125 C 651.339844 749.261719 655.257812 754.558594 660.558594 758.476562 C 665.625 762.164062 671.617188 764.007812 678.296875 764.007812 Z M 797.183594 772.300781 C 787.507812 772.300781 778.753906 770.226562 770.917969 766.308594 C 763.316406 762.164062 757.09375 756.632812 752.71875 749.722656 C 748.339844 742.808594 746.035156 734.746094 746.035156 725.761719 C 746.035156 718.15625 747.417969 711.246094 750.414062 705.023438 C 753.175781 698.804688 757.09375 693.503906 762.164062 688.894531 C 767.230469 684.289062 772.761719 680.832031 779.210938 678.296875 C 785.664062 675.761719 792.34375 674.609375 799.488281 674.609375 C 804.328125 674.609375 808.472656 674.839844 811.929688 675.53125 C 815.386719 676.222656 818.378906 676.914062 821.144531 678.066406 C 823.910156 679.21875 826.675781 680.371094 829.210938 681.523438 L 829.902344 705.714844 L 827.136719 705.714844 L 817.460938 688.664062 C 814.695312 686.59375 811.929688 684.980469 808.933594 684.289062 C 806.167969 683.367188 802.945312 683.136719 799.488281 683.136719 C 792.34375 683.136719 786.125 684.980469 780.59375 688.433594 C 775.066406 691.890625 770.917969 696.730469 767.691406 702.71875 C 764.699219 708.710938 763.085938 715.621094 763.085938 723.226562 C 763.085938 736.359375 766.308594 746.496094 772.992188 753.636719 C 779.671875 760.78125 788.429688 764.238281 799.488281 764.238281 C 802.945312 764.238281 806.167969 764.007812 808.703125 763.546875 C 811.46875 763.085938 814.003906 762.164062 816.539062 760.78125 L 828.75 742.808594 L 831.511719 742.808594 L 829.902344 765.621094 C 825.753906 767.691406 821.144531 769.535156 816.078125 770.917969 C 811.007812 771.839844 804.789062 772.300781 797.183594 772.300781 Z M 886.578125 772.300781 C 880.589844 772.300781 875.289062 771.609375 870.910156 770.457031 C 866.535156 769.304688 861.925781 767.460938 857.546875 765.160156 L 855.9375 742.347656 L 858.699219 742.347656 L 867.457031 758.015625 C 870.453125 760.320312 873.675781 761.933594 877.132812 762.855469 C 880.589844 763.777344 883.8125 764.238281 887.5 764.238281 C 893.722656 764.238281 898.558594 763.085938 901.785156 760.550781 C 905.242188 758.015625 906.855469 754.328125 906.855469 749.03125 C 906.855469 745.113281 905.933594 742.347656 903.859375 740.042969 C 901.785156 737.972656 898.789062 735.898438 894.875 734.054688 C 890.726562 732.210938 885.886719 729.90625 879.898438 727.140625 C 872.753906 723.6875 867.6875 720.230469 864.460938 716.542969 C 861.234375 712.859375 859.851562 708.019531 859.851562 701.796875 C 859.851562 696.960938 861.234375 692.351562 864.230469 688.203125 C 867.226562 684.058594 870.910156 680.601562 875.75 678.066406 C 880.589844 675.53125 885.65625 674.378906 891.417969 674.378906 C 896.257812 674.378906 900.632812 675.070312 904.78125 676.222656 C 908.929688 677.375 912.613281 678.988281 916.300781 680.832031 L 917.683594 702.949219 L 914.917969 702.949219 L 907.085938 688.203125 C 902.476562 684.519531 897.40625 682.675781 891.648438 682.675781 C 886.347656 682.675781 881.972656 684.058594 878.976562 686.59375 C 875.980469 689.125 874.367188 692.8125 874.367188 697.191406 C 874.367188 700.1875 875.058594 702.488281 876.671875 704.5625 C 878.285156 706.636719 880.359375 708.480469 883.585938 710.09375 C 886.578125 711.9375 890.726562 713.777344 895.566406 716.3125 C 901.785156 719.308594 906.855469 722.074219 910.769531 724.839844 C 914.6875 727.371094 917.453125 730.367188 919.066406 733.59375 C 920.910156 736.820312 921.601562 740.734375 921.601562 745.574219 C 921.601562 750.875 920.21875 755.480469 917.222656 759.628906 C 914.226562 763.777344 910.078125 766.769531 905.011719 769.074219 C 899.019531 771.148438 893.03125 772.300781 886.578125 772.300781 Z M 886.578125 772.300781 "/>
<path style=" stroke:none;fill-rule:nonzero;fill:rgb(1.176471%,32.54902%,64.313725%);fill-opacity:1;" d="M 368.871094 830.132812 L 364.492188 830.132812 L 364.492188 805.019531 L 367.027344 805.019531 C 367.71875 805.019531 367.949219 805.246094 368.179688 805.9375 L 368.640625 808.703125 C 369.792969 807.550781 370.945312 806.628906 372.328125 805.707031 C 373.707031 805.019531 375.320312 804.558594 376.933594 804.558594 C 378.316406 804.558594 379.46875 804.789062 380.621094 805.246094 C 381.773438 805.707031 382.464844 806.398438 383.15625 807.089844 C 383.847656 808.011719 384.308594 808.933594 384.769531 810.085938 C 385.230469 811.238281 385.230469 812.621094 385.230469 814.003906 L 385.230469 830.132812 L 380.851562 830.132812 L 380.851562 814.003906 C 380.851562 812.160156 380.390625 810.546875 379.46875 809.625 C 378.546875 808.472656 377.164062 808.011719 375.550781 808.011719 C 374.167969 808.011719 373.019531 808.242188 371.867188 808.933594 C 370.714844 809.625 369.792969 810.316406 368.640625 811.46875 Z M 404.121094 804.558594 C 405.964844 804.558594 407.578125 804.789062 409.191406 805.476562 C 410.574219 806.167969 411.957031 806.859375 412.875 808.011719 C 413.796875 809.164062 414.71875 810.546875 415.179688 812.160156 C 415.640625 813.773438 416.101562 815.617188 416.101562 817.460938 C 416.101562 819.53125 415.871094 821.144531 415.179688 822.757812 C 414.71875 824.371094 413.796875 825.753906 412.875 826.90625 C 411.957031 828.058594 410.574219 828.980469 409.191406 829.441406 C 407.808594 830.132812 405.964844 830.363281 404.121094 830.363281 C 402.277344 830.363281 400.664062 830.132812 399.054688 829.441406 C 397.441406 828.75 396.289062 828.058594 395.367188 826.90625 C 394.214844 825.753906 393.523438 824.371094 393.0625 822.757812 C 392.601562 821.144531 392.140625 819.300781 392.140625 817.460938 C 392.140625 815.386719 392.371094 813.773438 393.0625 812.160156 C 393.523438 810.546875 394.445312 809.164062 395.367188 808.011719 C 396.519531 806.859375 397.671875 805.9375 399.054688 805.476562 C 400.433594 805.019531 402.277344 804.558594 404.121094 804.558594 Z M 404.121094 827.136719 C 406.65625 827.136719 408.5 826.214844 409.652344 824.601562 C 410.804688 822.988281 411.496094 820.683594 411.496094 817.691406 C 411.496094 814.695312 410.804688 812.390625 409.652344 810.777344 C 408.5 809.164062 406.65625 808.242188 404.121094 808.242188 C 402.96875 808.242188 401.816406 808.472656 400.894531 808.933594 C 399.972656 809.394531 399.28125 810.085938 398.59375 810.777344 C 397.902344 811.699219 397.441406 812.621094 397.210938 813.773438 C 396.980469 814.925781 396.75 816.308594 396.75 817.691406 C 396.75 819.070312 396.980469 820.453125 397.210938 821.605469 C 397.441406 822.757812 397.902344 823.679688 398.59375 824.601562 C 399.28125 825.292969 399.972656 825.984375 400.894531 826.445312 C 401.816406 826.90625 402.96875 827.136719 404.121094 827.136719 Z M 439.601562 830.132812 L 435.226562 830.132812 L 435.226562 805.019531 L 437.761719 805.019531 C 438.453125 805.019531 438.679688 805.246094 438.910156 805.9375 L 439.140625 808.472656 C 440.0625 807.320312 441.214844 806.398438 442.367188 805.707031 C 443.519531 805.019531 444.902344 804.558594 446.285156 804.558594 C 447.898438 804.558594 449.28125 805.019531 450.433594 805.9375 C 451.585938 806.859375 452.273438 808.242188 452.734375 809.855469 C 453.195312 808.933594 453.65625 808.242188 454.117188 807.550781 C 454.578125 806.859375 455.269531 806.398438 455.960938 805.9375 C 456.652344 805.476562 457.34375 805.246094 458.265625 805.019531 C 459.1875 804.789062 459.878906 804.789062 460.800781 804.789062 C 462.183594 804.789062 463.335938 805.019531 464.257812 805.476562 C 465.175781 805.9375 466.097656 806.628906 466.789062 807.320312 C 467.480469 808.011719 468.171875 809.164062 468.402344 810.316406 C 468.863281 811.46875 468.863281 812.851562 468.863281 814.464844 L 468.863281 830.59375 L 464.488281 830.59375 L 464.488281 814.464844 C 464.488281 812.390625 464.027344 811.007812 463.105469 810.085938 C 462.183594 809.164062 461.03125 808.472656 459.417969 808.472656 C 458.726562 808.472656 458.035156 808.703125 457.34375 808.933594 C 456.652344 809.164062 456.191406 809.625 455.5 810.085938 C 455.039062 810.546875 454.578125 811.238281 454.347656 811.929688 C 454.117188 812.621094 453.886719 813.542969 453.886719 814.464844 L 453.886719 830.59375 L 449.511719 830.59375 L 449.511719 814.464844 C 449.511719 812.390625 449.050781 811.007812 448.359375 809.855469 C 447.4375 808.933594 446.285156 808.472656 444.902344 808.472656 C 443.75 808.472656 442.828125 808.703125 441.90625 809.394531 C 440.984375 810.085938 440.0625 810.777344 439.371094 811.699219 Z M 488.21875 804.558594 C 490.0625 804.558594 491.671875 804.789062 493.285156 805.476562 C 494.667969 806.167969 496.050781 806.859375 496.972656 808.011719 C 497.894531 809.164062 498.816406 810.546875 499.277344 812.160156 C 499.738281 813.773438 500.199219 815.617188 500.199219 817.460938 C 500.199219 819.53125 499.96875 821.144531 499.277344 822.757812 C 498.816406 824.371094 497.894531 825.753906 496.972656 826.90625 C 496.050781 828.058594 494.667969 828.980469 493.285156 829.441406 C 491.902344 830.132812 490.0625 830.363281 488.21875 830.363281 C 486.375 830.363281 484.761719 830.132812 483.148438 829.441406 C 481.765625 828.75 480.382812 828.058594 479.460938 826.90625 C 478.308594 825.753906 477.621094 824.371094 477.160156 822.757812 C 476.699219 821.144531 476.238281 819.300781 476.238281 817.460938 C 476.238281 815.386719 476.46875 813.773438 477.160156 812.160156 C 477.621094 810.546875 478.539062 809.164062 479.460938 808.011719 C 480.613281 806.859375 481.765625 805.9375 483.148438 805.476562 C 484.761719 805.019531 486.375 804.558594 488.21875 804.558594 Z M 488.21875 827.136719 C 490.753906 827.136719 492.59375 826.214844 493.746094 824.601562 C 494.898438 822.988281 495.589844 820.683594 495.589844 817.691406 C 495.589844 814.695312 494.898438 812.390625 493.746094 810.777344 C 492.59375 809.164062 490.753906 808.242188 488.21875 808.242188 C 487.066406 808.242188 485.914062 808.472656 484.992188 808.933594 C 484.070312 809.394531 483.378906 810.085938 482.6875 810.777344 C 481.996094 811.699219 481.535156 812.621094 481.304688 813.773438 C 481.074219 814.925781 480.84375 816.308594 480.84375 817.691406 C 480.84375 819.070312 481.074219 820.453125 481.304688 821.605469 C 481.535156 822.757812 481.996094 823.679688 482.6875 824.601562 C 483.378906 825.292969 484.070312 825.984375 484.992188 826.445312 C 485.914062 826.90625 487.066406 827.136719 488.21875 827.136719 Z M 512.179688 830.132812 L 507.800781 830.132812 L 507.800781 805.019531 L 510.335938 805.019531 C 510.796875 805.019531 511.257812 805.019531 511.257812 805.246094 C 511.488281 805.476562 511.488281 805.707031 511.71875 806.167969 L 511.949219 810.085938 C 512.871094 808.242188 513.792969 806.859375 515.175781 805.9375 C 516.558594 805.019531 517.9375 804.558594 519.550781 804.558594 C 520.242188 804.558594 520.933594 804.558594 521.394531 804.789062 C 521.855469 805.019531 522.546875 805.246094 523.007812 805.476562 L 522.546875 808.703125 C 522.316406 809.164062 522.085938 809.394531 521.855469 809.394531 C 521.625 809.394531 521.164062 809.394531 520.703125 809.164062 C 520.242188 808.933594 519.550781 808.933594 518.628906 808.933594 C 517.019531 808.933594 515.867188 809.394531 514.714844 810.316406 C 513.5625 811.238281 512.871094 812.621094 512.179688 814.234375 Z M 539.597656 804.558594 C 541.210938 804.558594 542.59375 804.789062 543.742188 805.246094 C 545.125 805.707031 546.046875 806.398438 546.96875 807.320312 C 547.890625 808.242188 548.582031 809.394531 549.042969 810.777344 C 549.503906 812.160156 549.734375 813.773438 549.734375 815.617188 C 549.734375 816.308594 549.734375 816.769531 549.503906 817 C 549.273438 817.230469 549.042969 817.460938 548.582031 817.460938 L 532.222656 817.460938 C 532.222656 819.070312 532.453125 820.453125 532.914062 821.605469 C 533.375 822.757812 533.835938 823.679688 534.527344 824.601562 C 535.21875 825.292969 536.140625 825.984375 537.0625 826.445312 C 537.984375 826.90625 539.136719 827.136719 540.289062 827.136719 C 541.441406 827.136719 542.363281 826.90625 543.054688 826.675781 C 543.742188 826.445312 544.433594 826.214844 545.125 825.753906 C 545.816406 825.523438 546.277344 825.292969 546.507812 824.832031 C 546.738281 824.371094 547.199219 824.371094 547.429688 824.371094 C 547.890625 824.371094 548.121094 824.601562 548.351562 824.832031 L 549.503906 826.445312 C 549.042969 827.136719 548.351562 827.597656 547.429688 828.058594 C 546.507812 828.519531 545.816406 828.980469 544.894531 829.210938 C 543.972656 829.441406 543.054688 829.671875 542.132812 829.902344 C 541.210938 830.132812 540.289062 830.132812 539.367188 830.132812 C 537.523438 830.132812 535.910156 829.902344 534.527344 829.210938 C 533.144531 828.519531 531.761719 827.828125 530.609375 826.675781 C 529.460938 825.523438 528.769531 824.140625 528.078125 822.527344 C 527.386719 820.914062 527.15625 818.839844 527.15625 816.769531 C 527.15625 814.925781 527.386719 813.3125 528.078125 811.929688 C 528.539062 810.316406 529.460938 809.164062 530.378906 808.011719 C 531.300781 806.859375 532.683594 805.9375 534.066406 805.476562 C 536.140625 805.019531 537.753906 804.558594 539.597656 804.558594 Z M 539.828125 808.011719 C 537.753906 808.011719 535.910156 808.703125 534.757812 809.855469 C 533.605469 811.007812 532.683594 812.851562 532.453125 814.925781 L 546.046875 814.925781 C 546.046875 814.003906 545.816406 812.851562 545.585938 812.160156 C 545.355469 811.46875 544.894531 810.546875 544.433594 809.855469 C 543.972656 809.164062 543.28125 808.703125 542.363281 808.472656 C 541.671875 808.011719 540.75 808.011719 539.828125 808.011719 Z M 573.695312 838.65625 L 569.320312 838.65625 L 569.320312 805.019531 L 571.851562 805.019531 C 572.542969 805.019531 572.773438 805.246094 573.003906 805.9375 L 573.464844 808.933594 C 574.617188 807.550781 575.769531 806.628906 577.152344 805.707031 C 578.535156 805.019531 580.148438 804.558594 581.992188 804.558594 C 583.371094 804.558594 584.753906 804.789062 585.90625 805.476562 C 587.058594 805.9375 587.980469 806.859375 588.902344 808.011719 C 589.824219 809.164062 590.285156 810.546875 590.746094 812.160156 C 591.207031 813.773438 591.4375 815.617188 591.4375 817.691406 C 591.4375 819.53125 591.207031 821.375 590.746094 822.757812 C 590.285156 824.140625 589.59375 825.753906 588.671875 826.90625 C 587.75 828.058594 586.597656 828.980469 585.214844 829.671875 C 583.832031 830.363281 582.453125 830.59375 580.609375 830.59375 C 578.996094 830.59375 577.613281 830.363281 576.691406 829.902344 C 575.539062 829.441406 574.617188 828.75 573.695312 827.828125 Z M 580.609375 808.242188 C 579.226562 808.242188 577.84375 808.472656 576.921875 809.164062 C 575.769531 809.855469 574.847656 810.777344 573.925781 811.929688 L 573.925781 824.140625 C 574.847656 825.292969 575.539062 825.984375 576.691406 826.445312 C 577.613281 826.90625 578.765625 827.136719 579.917969 827.136719 C 582.222656 827.136719 584.0625 826.214844 585.214844 824.601562 C 586.367188 822.988281 587.058594 820.453125 587.058594 817.460938 C 587.058594 815.847656 586.828125 814.464844 586.597656 813.3125 C 586.367188 812.160156 585.90625 811.238281 585.445312 810.316406 C 584.984375 809.625 584.292969 808.933594 583.371094 808.703125 C 582.453125 808.242188 581.53125 808.242188 580.609375 808.242188 Z M 617.242188 814.003906 L 617.242188 830.132812 L 615.167969 830.132812 C 614.707031 830.132812 614.476562 830.132812 614.015625 829.902344 C 613.785156 829.671875 613.554688 829.441406 613.554688 828.980469 L 613.09375 826.675781 C 612.402344 827.367188 611.710938 827.828125 611.25 828.289062 C 610.558594 828.75 609.867188 829.210938 609.175781 829.441406 C 608.488281 829.671875 607.796875 829.902344 606.875 830.132812 C 606.183594 830.363281 605.261719 830.363281 604.339844 830.363281 C 603.417969 830.363281 602.496094 830.132812 601.574219 829.902344 C 600.652344 829.671875 599.960938 829.210938 599.269531 828.75 C 598.578125 828.289062 598.117188 827.597656 597.65625 826.675781 C 597.195312 825.753906 597.195312 824.832031 597.195312 823.679688 C 597.195312 822.757812 597.425781 821.835938 598.117188 820.914062 C 598.808594 819.992188 599.5 819.070312 600.652344 818.378906 C 601.804688 817.691406 603.417969 817 605.492188 816.539062 C 607.566406 816.078125 609.867188 815.847656 612.632812 815.847656 L 612.632812 813.773438 C 612.632812 811.929688 612.171875 810.316406 611.480469 809.394531 C 610.558594 808.472656 609.40625 807.78125 607.796875 807.78125 C 606.644531 807.78125 605.722656 808.011719 605.03125 808.242188 C 604.339844 808.472656 603.648438 808.933594 603.1875 809.164062 C 602.726562 809.394531 602.265625 809.855469 601.804688 810.085938 C 601.34375 810.316406 601.113281 810.546875 600.652344 810.546875 C 600.421875 810.546875 600.191406 810.546875 599.960938 810.316406 C 599.730469 810.085938 599.5 809.855469 599.5 809.625 L 598.808594 808.242188 C 600.191406 806.859375 601.804688 805.9375 603.417969 805.246094 C 605.03125 804.558594 606.875 804.328125 608.71875 804.328125 C 610.097656 804.328125 611.480469 804.558594 612.402344 805.019531 C 613.554688 805.476562 614.476562 806.167969 615.167969 806.859375 C 615.859375 807.78125 616.550781 808.703125 616.78125 809.855469 C 617.011719 811.46875 617.242188 812.621094 617.242188 814.003906 Z M 605.722656 827.597656 C 606.414062 827.597656 607.105469 827.597656 607.796875 827.367188 C 608.488281 827.136719 608.945312 826.90625 609.636719 826.675781 C 610.097656 826.445312 610.789062 825.984375 611.25 825.523438 C 611.710938 825.0625 612.171875 824.601562 612.863281 824.140625 L 612.863281 818.839844 C 610.789062 818.839844 609.175781 819.070312 607.566406 819.300781 C 606.183594 819.53125 605.03125 819.992188 604.109375 820.222656 C 603.1875 820.683594 602.496094 821.144531 602.265625 821.605469 C 601.804688 822.066406 601.574219 822.757812 601.574219 823.449219 C 601.574219 824.140625 601.574219 824.601562 601.804688 825.0625 C 602.035156 825.523438 602.265625 825.984375 602.726562 826.214844 C 603.1875 826.445312 603.417969 826.675781 604.109375 826.90625 C 604.570312 827.367188 605.261719 827.597656 605.722656 827.597656 Z M 630.375 838.65625 L 625.996094 838.65625 L 625.996094 805.019531 L 628.53125 805.019531 C 629.222656 805.019531 629.453125 805.246094 629.683594 805.9375 L 630.144531 808.933594 C 631.296875 807.550781 632.449219 806.628906 633.832031 805.707031 C 635.210938 804.789062 636.824219 804.558594 638.667969 804.558594 C 640.050781 804.558594 641.433594 804.789062 642.585938 805.476562 C 643.738281 806.167969 644.660156 806.859375 645.582031 808.011719 C 646.503906 809.164062 646.964844 810.546875 647.425781 812.160156 C 647.886719 813.773438 648.113281 815.617188 648.113281 817.691406 C 648.113281 819.53125 647.886719 821.375 647.425781 822.757812 C 646.964844 824.371094 646.273438 825.753906 645.351562 826.90625 C 644.429688 828.058594 643.277344 828.980469 641.894531 829.671875 C 640.511719 830.363281 639.128906 830.59375 637.285156 830.59375 C 635.671875 830.59375 634.292969 830.363281 633.371094 829.902344 C 632.21875 829.441406 631.296875 828.75 630.375 827.828125 Z M 637.285156 808.242188 C 635.902344 808.242188 634.523438 808.472656 633.601562 809.164062 C 632.449219 809.855469 631.527344 810.777344 630.605469 811.929688 L 630.605469 824.140625 C 631.527344 825.292969 632.21875 825.984375 633.371094 826.445312 C 634.292969 826.90625 635.441406 827.136719 636.59375 827.136719 C 638.898438 827.136719 640.742188 826.214844 641.894531 824.601562 C 643.046875 822.988281 643.738281 820.453125 643.738281 817.460938 C 643.738281 815.847656 643.507812 814.464844 643.277344 813.3125 C 643.046875 812.160156 642.585938 811.238281 642.125 810.316406 C 641.664062 809.625 640.972656 808.933594 640.050781 808.703125 C 639.128906 808.242188 638.207031 808.242188 637.285156 808.242188 Z M 665.394531 804.558594 C 667.007812 804.558594 668.390625 804.789062 669.542969 805.246094 C 670.925781 805.707031 671.847656 806.398438 672.769531 807.320312 C 673.691406 808.242188 674.378906 809.394531 674.839844 810.777344 C 675.300781 812.160156 675.53125 813.773438 675.53125 815.617188 C 675.53125 816.308594 675.53125 816.769531 675.300781 817 C 675.070312 817.230469 674.839844 817.460938 674.378906 817.460938 L 657.5625 817.460938 C 657.5625 819.070312 657.792969 820.453125 658.253906 821.605469 C 658.714844 822.757812 659.175781 823.679688 659.867188 824.601562 C 660.558594 825.523438 661.476562 825.984375 662.398438 826.445312 C 663.320312 826.90625 664.472656 827.136719 665.625 827.136719 C 666.777344 827.136719 667.699219 826.90625 668.390625 826.675781 C 669.082031 826.445312 669.773438 826.214844 670.464844 825.753906 C 671.15625 825.292969 671.617188 825.292969 671.847656 824.832031 C 672.308594 824.601562 672.539062 824.371094 672.769531 824.371094 C 673.230469 824.371094 673.460938 824.601562 673.691406 824.832031 L 674.839844 826.445312 C 674.378906 827.136719 673.691406 827.597656 672.769531 828.058594 C 671.847656 828.519531 671.15625 828.980469 670.234375 829.210938 C 669.3125 829.441406 668.390625 829.671875 667.46875 829.902344 C 666.546875 830.132812 665.625 830.132812 664.703125 830.132812 C 662.859375 830.132812 661.246094 829.902344 659.867188 829.210938 C 658.484375 828.519531 657.101562 827.828125 655.949219 826.675781 C 654.796875 825.523438 654.105469 824.140625 653.414062 822.527344 C 652.722656 820.914062 652.492188 818.839844 652.492188 816.769531 C 652.492188 814.925781 652.722656 813.3125 653.414062 811.929688 C 653.875 810.316406 654.796875 809.164062 655.71875 808.011719 C 656.640625 806.859375 658.023438 805.9375 659.40625 805.476562 C 661.9375 805.019531 663.550781 804.558594 665.394531 804.558594 Z M 665.394531 808.011719 C 663.320312 808.011719 661.476562 808.703125 660.328125 809.855469 C 659.175781 811.007812 658.253906 812.851562 658.023438 814.925781 L 671.617188 814.925781 C 671.617188 814.003906 671.386719 812.851562 671.15625 812.160156 C 670.925781 811.238281 670.464844 810.546875 670.003906 809.855469 C 669.542969 809.164062 668.851562 808.703125 667.929688 808.472656 C 667.46875 808.011719 666.546875 808.011719 665.394531 808.011719 Z M 687.972656 830.132812 L 683.597656 830.132812 L 683.597656 805.019531 L 686.132812 805.019531 C 686.59375 805.019531 687.054688 805.019531 687.054688 805.246094 C 687.28125 805.476562 687.28125 805.707031 687.511719 806.167969 L 687.742188 810.085938 C 688.664062 808.242188 689.585938 806.859375 690.96875 805.9375 C 692.351562 805.019531 693.734375 804.558594 695.347656 804.558594 C 696.039062 804.558594 696.730469 804.558594 697.191406 804.789062 C 697.652344 805.019531 698.34375 805.246094 698.804688 805.476562 L 698.113281 808.703125 C 697.882812 809.164062 697.652344 809.394531 697.421875 809.394531 C 697.191406 809.394531 696.730469 809.394531 696.269531 809.164062 C 695.808594 808.933594 695.117188 808.933594 694.195312 808.933594 C 692.582031 808.933594 691.429688 809.394531 690.277344 810.316406 C 689.355469 811.238281 688.433594 812.621094 687.742188 814.234375 L 687.742188 830.132812 Z M 710.324219 830.132812 L 702.257812 805.019531 L 705.714844 805.019531 C 706.175781 805.019531 706.40625 805.019531 706.636719 805.246094 C 706.867188 805.476562 707.097656 805.707031 707.097656 805.9375 L 711.9375 822.066406 C 712.167969 822.757812 712.167969 823.21875 712.398438 823.679688 C 712.628906 824.140625 712.628906 824.832031 712.628906 825.292969 C 712.859375 824.832031 712.859375 824.140625 713.089844 823.679688 C 713.320312 823.21875 713.320312 822.527344 713.546875 822.066406 L 718.847656 805.707031 C 718.847656 805.476562 719.078125 805.246094 719.308594 805.019531 C 719.539062 804.789062 719.769531 804.789062 720 804.789062 L 721.84375 804.789062 C 722.074219 804.789062 722.535156 804.789062 722.765625 805.019531 C 722.996094 805.246094 723.226562 805.476562 723.226562 805.707031 L 728.523438 822.066406 C 728.753906 822.757812 728.753906 823.21875 728.984375 823.679688 C 729.214844 824.140625 729.214844 824.832031 729.445312 825.292969 C 729.445312 824.832031 729.675781 824.140625 729.675781 823.679688 C 729.90625 822.988281 729.90625 822.527344 730.136719 822.066406 L 734.976562 805.9375 C 734.976562 805.707031 735.207031 805.476562 735.4375 805.246094 C 735.667969 805.019531 735.898438 805.019531 736.359375 805.019531 L 739.585938 805.019531 L 731.519531 830.132812 L 728.0625 830.132812 C 727.601562 830.132812 727.371094 829.902344 727.140625 829.210938 L 721.613281 812.160156 C 721.382812 811.699219 721.382812 811.46875 721.382812 811.007812 C 721.382812 810.546875 721.152344 810.316406 721.152344 809.855469 C 721.152344 810.316406 720.921875 810.546875 720.921875 811.007812 C 720.921875 811.46875 720.691406 811.699219 720.691406 812.160156 L 715.160156 829.210938 C 714.929688 829.671875 714.699219 830.132812 714.238281 830.132812 Z M 755.710938 804.558594 C 757.554688 804.558594 759.167969 804.789062 760.78125 805.476562 C 762.394531 806.167969 763.546875 806.859375 764.46875 808.011719 C 765.390625 809.164062 766.308594 810.546875 766.769531 812.160156 C 767.230469 813.773438 767.691406 815.617188 767.691406 817.460938 C 767.691406 819.53125 767.460938 821.144531 766.769531 822.757812 C 766.308594 824.371094 765.390625 825.753906 764.46875 826.90625 C 763.546875 828.058594 762.164062 828.980469 760.78125 829.441406 C 759.398438 829.902344 757.554688 830.363281 755.710938 830.363281 C 753.867188 830.363281 752.257812 830.132812 750.644531 829.441406 C 749.261719 828.75 747.878906 828.058594 746.957031 826.90625 C 745.804688 825.753906 745.113281 824.371094 744.652344 822.757812 C 744.191406 821.144531 743.730469 819.300781 743.730469 817.460938 C 743.730469 815.386719 743.960938 813.773438 744.652344 812.160156 C 745.113281 810.546875 746.035156 809.164062 746.957031 808.011719 C 748.109375 806.859375 749.261719 805.9375 750.644531 805.476562 C 752.257812 805.019531 753.867188 804.558594 755.710938 804.558594 Z M 755.710938 827.136719 C 758.246094 827.136719 760.089844 826.214844 761.242188 824.601562 C 762.394531 822.988281 763.085938 820.683594 763.085938 817.691406 C 763.085938 814.695312 762.394531 812.390625 761.242188 810.777344 C 760.089844 809.164062 758.246094 808.242188 755.710938 808.242188 C 754.558594 808.242188 753.40625 808.472656 752.488281 808.933594 C 751.566406 809.394531 750.875 810.085938 750.183594 810.777344 C 749.492188 811.699219 749.03125 812.621094 748.800781 813.773438 C 748.570312 814.925781 748.339844 816.308594 748.339844 817.691406 C 748.339844 819.070312 748.570312 820.453125 748.800781 821.605469 C 749.03125 822.757812 749.492188 823.679688 750.183594 824.601562 C 750.875 825.292969 751.566406 825.984375 752.488281 826.445312 C 753.40625 826.90625 754.558594 827.136719 755.710938 827.136719 Z M 779.671875 830.132812 L 775.296875 830.132812 L 775.296875 805.019531 L 777.832031 805.019531 C 778.292969 805.019531 778.753906 805.019531 778.753906 805.246094 C 778.980469 805.476562 778.980469 805.707031 779.210938 806.167969 L 779.441406 810.085938 C 780.363281 808.242188 781.285156 806.859375 782.667969 805.9375 C 784.050781 805.019531 785.433594 804.558594 787.046875 804.558594 C 787.738281 804.558594 788.429688 804.558594 788.890625 804.789062 C 789.351562 805.019531 790.042969 805.246094 790.503906 805.476562 L 790.042969 808.703125 C 789.8125 809.164062 789.582031 809.394531 789.351562 809.394531 C 789.121094 809.394531 788.660156 809.394531 788.199219 809.164062 C 787.738281 808.933594 787.046875 808.933594 786.125 808.933594 C 784.511719 808.933594 783.359375 809.394531 782.207031 810.316406 C 781.054688 811.238281 780.363281 812.621094 779.671875 814.234375 Z M 797.414062 793.496094 L 801.792969 793.496094 L 801.792969 815.15625 L 802.945312 815.15625 C 803.175781 815.15625 803.636719 815.15625 803.867188 814.925781 C 804.097656 814.925781 804.328125 814.695312 804.558594 814.464844 L 812.621094 805.9375 C 812.851562 805.707031 813.082031 805.476562 813.3125 805.246094 C 813.542969 805.019531 814.003906 805.019531 814.234375 805.019531 L 818.152344 805.019531 L 808.933594 814.925781 C 808.703125 815.15625 808.472656 815.386719 808.242188 815.617188 C 808.011719 815.847656 807.78125 816.078125 807.550781 816.078125 C 807.78125 816.308594 808.011719 816.539062 808.472656 816.769531 C 808.703125 817 808.933594 817.230469 809.164062 817.691406 L 819.070312 830.132812 L 815.15625 830.132812 C 814.695312 830.132812 814.464844 830.132812 814.234375 829.902344 C 814.003906 829.671875 813.773438 829.441406 813.542969 829.210938 L 805.246094 818.839844 C 805.019531 818.378906 804.789062 818.378906 804.558594 818.152344 C 804.328125 817.921875 803.867188 817.921875 803.40625 817.921875 L 801.792969 817.921875 L 801.792969 829.902344 L 797.414062 829.902344 Z M 797.414062 793.496094 "/>
</g>
</svg>
