<?xml version="1.0" encoding="utf-8"?>
<!-- Generator: Adobe Illustrator 25.1.0, SVG Export Plug-In . SVG Version: 6.00 Build 0)  -->
<svg xmlns="http://www.w3.org/2000/svg" version="1.1" preserveAspectRatio="none" width="500" height="500" viewBox="0 0 500 500">
<style type="text/css">
	.st0{fill:#B9D6F2;}
	.st1{fill:#061A40;}
	.st2{fill:#0353A4;}
</style>
<rect class="st0" width="500" height="500"/>
<g>
	<g transform="rotate(0 181.8361 266.1795)">
		<g transform="matrix(1 0 0 1 0 0)">
			<g>
				<path class="st1" d="M204.9,191.4"/>
				<path class="st1" d="M193.7,258.9"/>
				<path class="st1" d="M193.7,191.4"/>
				<path class="st1" d="M203.6,196.7c0-10.5,0-21.2,0-31.7c10.5,0,21.2,0,31.7,0c0-2.2,0-4.4,0-6.6h-38.2c0,12.7,0,25.6,0,38.2
					C199.2,196.7,201.4,196.7,203.6,196.7z"/>
				<path class="st2" d="M286.4,190v2.8h-65.8V190C220.6,190,286.4,190,286.4,190z"/>
				<path class="st2" d="M286.4,201.5v2.8h-66v-2.8H286.4z"/>
				<path class="st2" d="M286.4,212.9v2.8h-66v-2.8H286.4z"/>
				<path class="st2" d="M284.7,224.4v3h-64.2v-3H284.7z"/>
				<path class="st2" d="M286.4,236v2.8h-66V236H286.4z"/>
				<path class="st2" d="M286.4,247.5v2.8h-66v-2.8H286.4z"/>
				<path class="st2" d="M256.7,258.9v2.8h-36.3v-2.8H256.7z"/>
				<path class="st1" d="M235.3,281.9c-10.5,0-21.2,0-31.7,0c0-10.5,0-21.2,0-31.7c-2.2,0-4.4,0-6.6,0v38.2c12.7,0,25.6,0,38.2,0
					C235.3,286.1,235.3,284.1,235.3,281.9z"/>
				<path class="st1" d="M299.9,250.2c0,10.5,0,21.2,0,31.7c-10.5,0-21.2,0-31.7,0c0,2.2,0,4.4,0,6.6h38.2c0-12.7,0-25.6,0-38.2
					C304.3,250.2,302.1,250.2,299.9,250.2z"/>
				<path class="st1" d="M268.2,165.2c10.5,0,21.2,0,31.7,0c0,10.5,0,21.2,0,31.7c2.2,0,4.4,0,6.6,0v-38.2c-12.7,0-25.6,0-38.2,0
					C268.2,160.8,268.2,163,268.2,165.2z"/>
			</g>
		</g>
	</g>
	<g transform="rotate(0 199.4331 631.2629)">
		<g transform="matrix(1 0 0 1 0 0)">
			<path id="id-D6z1nYkh6" class="st1" d="M160.1,341.1h-12.9v-0.8l4.1-2v-27.7l-4-2.2v-0.8h8l19.5,23.9v-21.1l-5.2-2v-0.8h12.9v0.8
				l-4,2v31h-2.2l-21.2-26v22.9l5.2,2L160.1,341.1L160.1,341.1z M203.1,341.6L203.1,341.6c-2.8,0-5.4-0.6-7.6-1.9
				c-2.2-1.3-4-3-5.2-5.2c-1.3-2.2-1.9-4.7-1.9-7.6l0,0c0-2.8,0.6-5.4,1.9-7.6c1.3-2.2,3-4,5.2-5.3s4.7-1.9,7.6-1.9l0,0
				c2.8,0,5.4,0.6,7.6,1.9c2.2,1.3,4,3.1,5.2,5.3c1.3,2.2,1.9,4.8,1.9,7.6l0,0c0,2.8-0.6,5.4-1.9,7.6c-1.3,2.2-3,4-5.2,5.2
				C208.5,341,206,341.6,203.1,341.6z M204,339.1L204,339.1c2.7,0,4.9-1,6.5-3c1.5-2,2.4-4.7,2.4-7.9l0,0c0-2.7-0.4-5-1.3-7.1
				c-0.9-2.1-2.1-3.6-3.6-4.7s-3.3-1.7-5.4-1.7l0,0c-2.7,0-4.9,1-6.5,3s-2.4,4.6-2.4,7.9l0,0c0,2.7,0.4,5.1,1.3,7.1
				c0.9,2,2.1,3.6,3.7,4.8C200.1,338.5,201.9,339.1,204,339.1z M239.3,341.1h-15.1v-0.8l4.1-2v-27.9l-4.1-2v-0.8h15.4
				c3.8,0,7,0.7,9.7,2s4.7,3.1,6.1,5.4c1.4,2.3,2.1,4.9,2.1,7.9l0,0c0,2.6-0.5,5.1-1.4,7.3c-0.9,2.2-2.2,4.2-3.8,5.8
				c-1.7,1.6-3.5,2.9-5.8,3.8C244.4,340.7,242,341.1,239.3,341.1L239.3,341.1z M238.3,310.4L238.3,310.4h-4.7v27.9h5.4
				c2.7,0,5-0.6,6.9-1.7s3.4-2.7,4.4-4.8c1-2.1,1.6-4.5,1.6-7.4l0,0c0-2.8-0.6-5.3-1.6-7.4s-2.6-3.8-4.7-4.9
				C243.7,310.9,241.2,310.4,238.3,310.4z M278.9,341.6L278.9,341.6c-2.8,0-5.4-0.6-7.6-1.9s-4-3-5.2-5.2c-1.3-2.2-1.9-4.7-1.9-7.6
				l0,0c0-2.8,0.6-5.4,1.9-7.6s3-4,5.2-5.3s4.7-1.9,7.6-1.9l0,0c2.8,0,5.4,0.6,7.6,1.9s4,3.1,5.2,5.3c1.3,2.2,1.9,4.8,1.9,7.6l0,0
				c0,2.8-0.6,5.4-1.9,7.6s-3,4-5.2,5.2C284.2,341,281.6,341.6,278.9,341.6z M279.6,339.1L279.6,339.1c2.7,0,4.9-1,6.5-3
				c1.5-2,2.4-4.7,2.4-7.9l0,0c0-2.7-0.4-5-1.3-7.1c-0.8-2-2.1-3.6-3.6-4.7s-3.3-1.7-5.4-1.7l0,0c-2.7,0-4.9,1-6.5,3
				s-2.4,4.6-2.4,7.9l0,0c0,2.7,0.4,5.1,1.3,7.1s2.1,3.6,3.7,4.8C275.8,338.5,277.6,339.1,279.6,339.1z M315.5,341.6L315.5,341.6
				c-2.9,0-5.6-0.6-7.9-1.8c-2.3-1.3-4.2-2.9-5.5-5s-2-4.5-2-7.2l0,0c0-2.3,0.4-4.4,1.3-6.3c0.8-1.9,2-3.5,3.5-4.9s3.2-2.4,5.1-3.2
				c1.9-0.8,4-1.1,6.1-1.1l0,0c1.5,0,2.7,0.1,3.8,0.3c1,0.2,1.9,0.4,2.8,0.8s1.7,0.7,2.4,1l0,0l0.2,7.3h-0.8l-2.9-5.1
				c-0.8-0.6-1.7-1.1-2.6-1.3c-0.8-0.3-1.8-0.3-2.8-0.3l0,0c-2.2,0-4,0.6-5.7,1.6s-2.9,2.5-3.9,4.3c-0.9,1.8-1.4,3.9-1.4,6.2l0,0
				c0,4,1,7,3,9.2s4.7,3.2,8,3.2l0,0c1,0,2-0.1,2.8-0.2s1.6-0.4,2.4-0.8l0,0l3.7-5.4h0.8l-0.5,6.9c-1.3,0.6-2.6,1.2-4.2,1.6
				C319.7,341.4,317.8,341.6,315.5,341.6z M342.4,341.6L342.4,341.6c-1.8,0-3.4-0.2-4.7-0.6c-1.3-0.3-2.7-0.9-4-1.6l0,0l-0.5-6.9
				h0.8l2.6,4.7c0.9,0.7,1.9,1.2,2.9,1.5s2,0.4,3.1,0.4l0,0c1.9,0,3.3-0.3,4.3-1.1c1-0.8,1.5-1.9,1.5-3.5l0,0c0-1.2-0.3-2-0.9-2.7
				c-0.6-0.6-1.5-1.3-2.7-1.8c-1.3-0.6-2.7-1.3-4.5-2.1l0,0c-2.2-1-3.7-2.1-4.7-3.2s-1.4-2.6-1.4-4.4l0,0c0-1.5,0.4-2.8,1.3-4.1
				c0.9-1.3,2-2.3,3.5-3.1c1.5-0.8,3-1.1,4.7-1.1l0,0c1.5,0,2.8,0.2,4,0.6c1.3,0.3,2.4,0.8,3.5,1.4l0,0l0.4,6.7h-0.8l-2.4-4.4
				c-1.4-1.1-2.9-1.7-4.7-1.7l0,0c-1.6,0-2.9,0.4-3.8,1.2c-0.9,0.8-1.4,1.9-1.4,3.2l0,0c0,0.9,0.2,1.6,0.7,2.2s1.1,1.2,2.1,1.7
				c0.9,0.6,2.2,1.1,3.6,1.9l0,0c1.9,0.9,3.4,1.7,4.6,2.6c1.2,0.8,2,1.7,2.5,2.6c0.6,1,0.8,2.2,0.8,3.6l0,0c0,1.6-0.4,3-1.3,4.2
				c-0.9,1.3-2.2,2.2-3.7,2.8C346.2,341.2,344.4,341.6,342.4,341.6z"/>
		</g>
	</g>
</g>
</svg>
